<svg width="120" height="180" viewBox="0 0 120 180" fill="none" xmlns="http://www.w3.org/2000/svg">
  <!-- Botanical leaf accent matching design reference - mirrored -->
  <path d="M110 90C110 50 90 20 60 10C90 20 110 130 110 170C110 175 108 180 105 180C100 180 95 175 90 165C80 145 70 110 60 90C70 110 90 130 110 90Z"
        fill="#C4D0C0"
        fill-opacity="0.6"/>
  <path d="M60 10C60 10 50 30 45 50C40 70 35 90 35 110C35 120 37 130 40 138C42 144 45 150 48 155"
        stroke="#8B6F4F"
        stroke-width="1.5"
        stroke-linecap="round"
        fill="none"
        opacity="0.4"/>
</svg>
